<svg width="48" height="48" viewBox="0 0 48 48" fill="none" xmlns="http://www.w3.org/2000/svg">
<g clip-path="url(#clip0_19_122)">
<path d="M39.155 13.946C38.941 13.342 38.617 12.734 38.156 12.077C39.004 8.92298 38.409 6.28498 38.381 6.16198L38.016 4.59798L36.41 4.61698C36.26 4.61898 32.93 4.67998 29.686 6.57198C25.9312 5.83799 22.0698 5.83799 18.315 6.57198C15.072 4.67998 11.742 4.61898 11.591 4.61698L9.984 4.59698L9.619 6.16098C9.591 6.28398 8.996 8.92198 9.844 12.076C9.383 12.733 9.059 13.342 8.845 13.945C7.658 17.301 7.658 20.705 8.846 24.062C9.916 27.085 13.543 30.178 16.071 30.924C16.922 31.175 17.775 31.346 18.629 31.469C18.2086 32.2473 17.9922 33.1194 18 34.004V35.285C17.938 35.321 17.873 35.35 17.813 35.393C17.524 35.604 14.944 37.36 12.308 35.483C11.378 34.537 10.922 33.844 10.482 33.174C9.494 31.674 8.641 30.588 5.894 29.214C5.41939 28.9767 4.86999 28.9378 4.36664 29.1056C3.86329 29.2735 3.44723 29.6344 3.21 30.109C2.97276 30.5836 2.93378 31.133 3.10162 31.6363C3.26947 32.1397 3.63039 32.5557 4.105 32.793C6.096 33.788 6.446 34.318 7.14 35.374C7.655 36.155 8.295 37.128 9.585 38.418L9.8 38.604C11.492 39.874 13.247 40.327 14.853 40.327C15.9269 40.3214 16.9917 40.1295 18 39.76V44.013H22V34.004C22 32.901 22.897 32.004 24 32.004C25.103 32.004 26 32.901 26 34.004V44.004H30V34.004C30 33.049 29.77 32.201 29.372 31.47C30.2366 31.3496 31.0914 31.1675 31.93 30.925C34.457 30.179 38.084 27.086 39.156 24.062C40.343 20.705 40.343 17.302 39.155 13.946ZM35.385 22.727C34.794 24.394 32.218 26.669 30.797 27.089C26.288 28.42 21.714 28.421 17.203 27.089C15.782 26.669 13.206 24.394 12.616 22.728C11.741 20.256 11.763 17.759 12.615 15.281C13.1 13.871 14.339 12.854 14.339 12.854L13.941 11.774C13.6056 10.8474 13.4206 9.87305 13.393 8.88798C14.385 9.12098 15.64 9.55198 16.809 10.347L17.525 10.834L18.37 10.646C22.0777 9.81198 25.9243 9.81198 29.632 10.646L30.477 10.834L31.193 10.347C32.36 9.55298 33.616 9.12198 34.608 8.88898C34.5818 9.87379 34.3971 10.8479 34.061 11.774L33.663 12.854C33.663 12.854 34.756 13.664 35.387 15.281C36.338 17.722 36.259 20.257 35.385 22.727Z" fill="white"/>
</g>
<defs>
<clipPath id="clip0_19_122">
<rect width="48" height="48" fill="white"/>
</clipPath>
</defs>
</svg>
