<svg width="48" height="48" viewBox="0 0 48 48" fill="none" xmlns="http://www.w3.org/2000/svg">
<g clip-path="url(#clip0_2_2345)">
<path fill-rule="evenodd" clip-rule="evenodd" d="M42.599 24.2783C40.886 22.9943 38.801 22.5793 36.841 23.4883C36.301 24.0793 32.572 27.1183 31.884 27.8373C29.789 24.9843 24.939 23.0793 19 23.0793C18.319 23.0793 17.658 23.1133 17.008 23.1623C17.008 23.1333 13.036 23.8253 13.036 23.7973C8.208 25.0313 5 27.7533 5 31.0793V43.0793H25C35.869 43.0793 43.481 33.1043 43.801 32.6803C45.785 30.0323 45.247 26.2643 42.599 24.2783ZM11 39.0793H25C33.893 39.0793 40.331 30.6383 40.6 30.2803C41.262 29.3983 41.082 28.1413 40.2 27.4793C39.318 26.8183 38.06 26.9993 37.399 27.8803C37.353 27.9433 31.974 35.0793 25 35.0793H17V31.0793H25C26.229 31.0793 27.46 30.6943 28.61 30.1173C27.482 28.6523 23.975 27.0793 19 27.0793C12.896 27.0793 9 29.4483 9 31.0793V39.0793H11Z" fill="black"/>
<path d="M30.5 23.375V13.7083M30.5 23.375L21.7733 17.9208C21.3138 17.6336 21.0841 17.49 20.9587 17.2639C20.8333 17.0377 20.8333 16.7667 20.8333 16.2248V7.66667M30.5 23.375L35.3333 20.3542L39.2267 17.9208C39.6862 17.6336 39.916 17.49 40.0413 17.2639C40.1667 17.0377 40.1667 16.7667 40.1667 16.2248V7.66667M30.5 13.7083L20.8333 7.66667M30.5 13.7083L40.1667 7.66667M20.8333 7.66667L29.44 2.2875C29.9555 1.96533 30.2132 1.80425 30.5 1.80425C30.7868 1.80425 31.0445 1.96533 31.56 2.2875L40.1667 7.66667" stroke="black" stroke-width="3" stroke-linejoin="round"/>
<path d="M33.8333 15.5208C33.8333 16.3492 34.5049 17.0208 35.3333 17.0208C36.1618 17.0208 36.8333 16.3492 36.8333 15.5208H33.8333ZM34.3933 10.1L33.5983 11.372L34.3933 10.1ZM35.208 10.757L36.5199 10.0298L35.208 10.757ZM24.8717 5.91781L33.5983 11.372L35.1883 8.82798L26.4617 3.37382L24.8717 5.91781ZM36.8333 15.5208V11.796H33.8333V15.5208H36.8333ZM33.5983 11.372C33.7166 11.4459 33.8043 11.5008 33.8783 11.549C33.9521 11.597 33.9918 11.6253 34.0134 11.6418C34.0337 11.6574 34.0211 11.6499 33.9948 11.6217C33.965 11.5897 33.9287 11.543 33.896 11.4841L36.5199 10.0298C36.3227 9.67404 36.0644 9.43404 35.8385 9.26087C35.638 9.10715 35.3941 8.95662 35.1883 8.82798L33.5983 11.372ZM36.8333 11.796C36.8333 11.5533 36.8349 11.2667 36.8108 11.0152C36.7837 10.7318 36.7171 10.3856 36.5199 10.0298L33.896 11.4841C33.8633 11.4252 33.8431 11.3696 33.8317 11.3274C33.8217 11.2902 33.822 11.2755 33.8245 11.301C33.8271 11.3281 33.83 11.3767 33.8316 11.4648C33.8333 11.5531 33.8333 11.6565 33.8333 11.796H36.8333Z" fill="black"/>
</g>
<defs>
<clipPath id="clip0_2_2345">
<rect width="48" height="48" fill="white"/>
</clipPath>
</defs>
</svg>
