<svg width="48" height="48" viewBox="0 0 48 48" fill="none" xmlns="http://www.w3.org/2000/svg">
<g clip-path="url(#clip0_19_120)">
<path d="M34.019 44H13.981C8.478 44 4 39.522 4 34.019V13.981C4 8.478 8.478 4 13.981 4H34.018C39.522 4 44 8.478 44 13.981V34.018C44 39.522 39.522 44 34.019 44ZM13.981 8C12.3954 8.00212 10.8753 8.63294 9.75413 9.75413C8.63294 10.8753 8.00212 12.3954 8 13.981V34.018C8.00212 35.6037 8.6329 37.1239 9.75407 38.2452C10.8752 39.3666 12.3953 39.9976 13.981 40H34.018C35.6037 39.9979 37.1239 39.3671 38.2452 38.2459C39.3666 37.1248 39.9976 35.6047 40 34.019V13.981C39.9979 12.3954 39.3671 10.8753 38.2459 9.75413C37.1247 8.63294 35.6046 8.00212 34.019 8H13.981Z" fill="white"/>
<path d="M15 17C16.1046 17 17 16.1046 17 15C17 13.8954 16.1046 13 15 13C13.8954 13 13 13.8954 13 15C13 16.1046 13.8954 17 15 17Z" fill="white"/>
<path d="M13 20H17V35H13V20ZM35 35H31V27.529C31 25.042 30.047 23.883 28 23.883L24 23.961V35H20V20.039L27.961 19.883H27.962C31.385 19.883 35 21.892 35 27.529V35Z" fill="white"/>
</g>
<defs>
<clipPath id="clip0_19_120">
<rect width="48" height="48" fill="white"/>
</clipPath>
</defs>
</svg>
