<svg width="48" height="48" viewBox="0 0 48 48" fill="none" xmlns="http://www.w3.org/2000/svg">
<g clip-path="url(#clip0_2_2330)">
<path d="M34 31C35.1046 31 36 30.1046 36 29C36 27.8954 35.1046 27 34 27C32.8954 27 32 27.8954 32 29C32 30.1046 32.8954 31 34 31Z" fill="black"/>
<path d="M4 40C4 42.2 5.8 44 8 44H40C42.2 44 44 42.2 44 40V18C44 15.8 42.2 14 40 14H32V4L4 14V40ZM28 9.676V14H15.893L28 9.676ZM8 18H40V40H8V18Z" fill="black"/>
</g>
<defs>
<clipPath id="clip0_2_2330">
<rect width="48" height="48" fill="white"/>
</clipPath>
</defs>
</svg>
